<?xml version="1.0" encoding="UTF-8"?>
<svg width="575px" height="575px" viewBox="0 0 575 575" version="1.1" xmlns="http://www.w3.org/2000/svg" xmlns:xlink="http://www.w3.org/1999/xlink">
    <!-- Generator: Sketch 56.3 (81716) - https://sketch.com -->
    <title>backsun</title>
    <desc>Created with Sketch.</desc>
    <g id="Page-1" stroke="none" stroke-width="1" fill="none" fill-rule="evenodd">
        <g id="backsun">
            <path d="M262.178801,193 L218.321199,218.321199 L193,262.178801 L193,312.821199 L218.321199,356.678801 L262.178801,382 L312.821199,382 L356.678801,356.678801 L382,312.821199 L382,262.178801 L356.678801,218.321199 L312.821199,193 L262.178801,193 Z M260.093273,168.374951 L291.5,0 L323.327603,170.631318 L434.714102,40.5176964 L376.961956,204.202554 L538.482304,147.214102 L406.625049,260.093273 L575,291.5 L404.368682,323.327603 L534.482304,434.714102 L370.797446,376.961956 L427.785898,538.482304 L314.906727,406.625049 L283.5,575 L251.672397,404.368682 L140.285898,534.482304 L198.038044,370.797446 L36.5176964,427.785898 L168.374951,314.906727 L-6.61309272e-15,283.5 L170.631318,251.672397 L40.5176964,140.285898 L204.202554,198.038044 L147.214102,36.5176964 L260.093273,168.374951 Z" id="Combined-Shape" fill="#6FE1EB" transform="translate(287.500000, 287.500000) rotate(-360.000000) translate(-287.500000, -287.500000) "></path>
            <path d="M287.5,189.666401 L238.5832,202.773618 L202.773618,238.5832 L189.666401,287.5 L202.773618,336.4168 L238.5832,372.226382 L287.5,385.333599 L336.4168,372.226382 L372.226382,336.4168 L385.333599,287.5 L372.226382,238.5832 L336.4168,202.773618 L287.5,189.666401 L287.5,189.666401 Z M291.858967,165.340655 L365.774179,10.8316011 L352.354648,183.886388 L493.621627,87.0352275 L395.472579,230.195303 L566.238951,216.953228 L409.659345,291.858967 L564.168399,365.774179 L391.113612,352.354648 L487.964772,493.621627 L344.804697,395.472579 L358.046772,566.238951 L283.141033,409.659345 L209.225821,564.168399 L222.645352,391.113612 L81.3783733,487.964772 L179.527421,344.804697 L8.76104876,358.046772 L165.340655,283.141033 L10.8316011,209.225821 L183.886388,222.645352 L87.0352275,81.3783733 L230.195303,179.527421 L216.953228,8.76104876 L291.858967,165.340655 Z" id="Shape" fill-opacity="0.66758632" fill="#F5A623"></path>
        </g>
    </g>
</svg>