<?xml version="1.0" encoding="UTF-8"?>
<svg width="499px" height="308px" viewBox="0 0 499 308" version="1.1" xmlns="http://www.w3.org/2000/svg" xmlns:xlink="http://www.w3.org/1999/xlink">
    <!-- Generator: Sketch 56.3 (81716) - https://sketch.com -->
    <title>backstars</title>
    <desc>Created with Sketch.</desc>
    <defs>
        <linearGradient x1="100%" y1="78.1980174%" x2="-1.58972125%" y2="78.1980174%" id="linearGradient-1">
            <stop stop-color="#C8C8C8" stop-opacity="0" offset="0%"></stop>
            <stop stop-color="#14CA31" stop-opacity="0.436489292" offset="14.5586993%"></stop>
            <stop stop-color="#2CCC65" stop-opacity="0.598694274" offset="85.7369088%"></stop>
            <stop stop-color="#979797" stop-opacity="0" offset="100%"></stop>
        </linearGradient>
        <linearGradient x1="100%" y1="78.1980174%" x2="-1.58972125%" y2="78.1980174%" id="linearGradient-2">
            <stop stop-color="#C8C8C8" stop-opacity="0" offset="0%"></stop>
            <stop stop-color="#CA14BE" stop-opacity="0.436489292" offset="14.5586993%"></stop>
            <stop stop-color="#C62CCC" stop-opacity="0.598694274" offset="85.7369088%"></stop>
            <stop stop-color="#979797" stop-opacity="0" offset="100%"></stop>
        </linearGradient>
        <linearGradient x1="100%" y1="78.1980174%" x2="-1.58972125%" y2="78.1980174%" id="linearGradient-3">
            <stop stop-color="#C8C8C8" stop-opacity="0" offset="0%"></stop>
            <stop stop-color="#1478CA" stop-opacity="0.436489292" offset="14.5586993%"></stop>
            <stop stop-color="#2C8DCC" stop-opacity="0.598694274" offset="85.7369088%"></stop>
            <stop stop-color="#979797" stop-opacity="0" offset="100%"></stop>
        </linearGradient>
    </defs>
    <g id="Page-1" stroke="none" stroke-width="1" fill="none" fill-rule="evenodd">
        <g id="backstars" transform="translate(-4.000000, -18.000000)">
            <g id="waves" transform="translate(256.500000, 158.639605) rotate(-10.000000) translate(-256.500000, -158.639605) translate(12.500000, 65.639605)" stroke-linecap="square" stroke-width="6">
                <path d="M2,112.860395 C253.788332,7.69677195 278.743999,166.554457 486.3125,112.860395" id="Line" stroke="url(#linearGradient-1)"></path>
                <path d="M2,62.8603949 C253.788332,-42.303228 278.743999,116.554457 486.3125,62.8603949" id="Line-Copy-2" stroke="url(#linearGradient-2)" transform="translate(244.156250, 50.143088) rotate(6.000000) translate(-244.156250, -50.143088) "></path>
                <path d="M2,152.860395 C253.788332,47.696772 278.743999,206.554457 486.3125,152.860395" id="Line-Copy" stroke="url(#linearGradient-3)" transform="translate(244.156250, 140.143088) rotate(-5.000000) translate(-244.156250, -140.143088) "></path>
            </g>
            <polygon id="Star" stroke="#6FE1EB" stroke-width="3" points="256.5 303.40918 226.358545 323.040933 206.048611 293.406251 170.664399 300.04632 163.277989 264.920322 128.037945 257.557816 134.699572 222.288116 104.968674 202.04391 124.664167 172 104.968674 141.95609 134.699572 121.711884 128.037945 86.4421841 163.277989 79.0796779 170.664399 43.9536797 206.048611 50.5937485 226.358545 20.9590668 256.5 40.5908203 286.641455 20.9590668 306.951389 50.5937485 342.335601 43.9536797 349.722011 79.0796779 384.962055 86.4421841 378.300428 121.711884 408.031326 141.95609 388.335833 172 408.031326 202.04391 378.300428 222.288116 384.962055 257.557816 349.722011 264.920322 342.335601 300.04632 306.951389 293.406251 286.641455 323.040933"></polygon>
            <polygon id="Star-Copy" stroke-opacity="0.591127622" stroke="#F5A623" stroke-width="3" transform="translate(256.000000, 171.500000) rotate(8.000000) translate(-256.000000, -171.500000) " points="256 297.362688 227.126632 316.165829 207.671161 287.781962 173.775606 294.141768 166.69995 260.49836 132.942497 253.446609 139.323862 219.665566 110.843779 200.275822 129.710658 171.5 110.843779 142.724178 139.323862 123.334434 132.942497 89.5533906 166.69995 82.5016396 173.775606 48.8582322 207.671161 55.2180383 227.126632 26.8341711 256 45.6373117 284.873368 26.8341711 304.328839 55.2180383 338.224394 48.8582322 345.30005 82.5016396 379.057503 89.5533906 372.676138 123.334434 401.156221 142.724178 382.289342 171.5 401.156221 200.275822 372.676138 219.665566 379.057503 253.446609 345.30005 260.49836 338.224394 294.141768 304.328839 287.781962 284.873368 316.165829"></polygon>
            <polygon id="Star-Copy-2" stroke-opacity="0.496448864" stroke="#BD10E0" stroke-width="3" transform="translate(256.000000, 171.500000) rotate(-360.000000) translate(-256.000000, -171.500000) " points="256 288.696103 214.303582 313.025214 192.42422 270.091636 144.149063 268.091958 149.033301 220.185021 109.506427 192.491439 139.603553 154.821256 121.374465 110.226286 167.128855 94.7528739 175.985159 47.4151039 222.870117 59.0511626 256 24 289.129883 59.0511626 336.014841 47.4151039 344.871145 94.7528739 390.625535 110.226286 372.396447 154.821256 402.493573 192.491439 362.966699 220.185021 367.850937 268.091958 319.57578 270.091636 297.696418 313.025214"></polygon>
            <polygon id="Star-Copy-3" stroke-opacity="0.717548077" stroke="#83E24A" stroke-width="3" transform="translate(256.000000, 171.500000) rotate(-350.000000) translate(-256.000000, -171.500000) " points="256 304.732887 228.805071 316.488532 207.70758 295.735967 178.08804 296.907028 165.937319 269.960291 137.89345 260.388609 136.330522 230.887008 113.649805 211.865291 122.885751 183.79318 108.631342 157.890417 127.418797 135.03909 123.515833 105.753593 149.317447 91.2092476 156.293045 62.4961847 185.624167 58.2231165 202.536233 33.9603462 231.435533 40.5356562 256 24 280.564467 40.5356562 309.463767 33.9603462 326.375833 58.2231165 355.706955 62.4961847 362.682553 91.2092476 388.484167 105.753593 384.581203 135.03909 403.368658 157.890417 389.114249 183.79318 398.350195 211.865291 375.669478 230.887008 374.10655 260.388609 346.062681 269.960291 333.91196 296.907028 304.29242 295.735967 283.194929 316.488532"></polygon>
        </g>
    </g>
</svg>